<svg width="400" height="400" viewBox="0 0 400 400" fill="none" xmlns="http://www.w3.org/2000/svg">
<rect width="400" height="400" fill="#F3F4F6"/>
<path d="M200 100C161.343 100 130 131.343 130 170C130 208.657 161.343 240 200 240C238.657 240 270 208.657 270 170C270 131.343 238.657 100 200 100ZM200 220C172.386 220 150 197.614 150 170C150 142.386 172.386 120 200 120C227.614 120 250 142.386 250 170C250 197.614 227.614 220 200 220Z" fill="#9CA3AF"/>
<path d="M300 280H100C94.4772 280 90 284.477 90 290C90 295.523 94.4772 300 100 300H300C305.523 300 310 295.523 310 290C310 284.477 305.523 280 300 280Z" fill="#9CA3AF"/>
<text x="200" y="330" text-anchor="middle" fill="#6B7284" font-family="Arial, sans-serif" font-size="14">No Image Available</text>
</svg>